<svg xmlns="http://www.w3.org/2000/svg" fill="currentColor" viewBox="0 0 600 600"><g transform="scale(25)"><path fill="url(#devicon-meta-icon-13-a)" d="M6.9 4v2.6c1.7 0 3 1.4 5.9 6.3l.2.3 1.6-2.5L13.5 9l-1.2-1.6Q9.6 3.8 7 4"/><path fill="url(#devicon-meta-icon-14-b)" d="M6.9 4q-3 .2-4.9 3.2l2.3 1.2q1.1-1.7 2.5-1.8z"/><path fill="url(#devicon-meta-icon-15-c)" d="M2 7.2a13 13 0 0 0-1.7 4.5l2.5.6q.5-2.3 1.5-3.9z"/><path fill="url(#devicon-meta-icon-16-d)" d="m2.8 12.3-2.5-.6Q0 13 0 14.5l2.6.2z"/><path fill="url(#devicon-meta-icon-17-e)" d="m2.7 15.5-.1-.8-2.6-.2.1 1.6z"/><path fill="url(#devicon-meta-icon-18-f)" d="M3.3 16.9q-.4-.5-.6-1.3L0 16q.3 1.5 1.2 2.5z"/><path fill="#0082FB" d="m10.8 9.7-2.5 3.8c-2 3.2-2.7 3.9-3.8 3.9a2 2 0 0 1-1.2-.5l-2 1.7a4 4 0 0 0 3 1.4c2 0 3.4-1 6-5.3l1.7-3.2z"/><path fill="url(#devicon-meta-icon-19-g)" d="m13.5 6-1.2 1.4L13.5 9l1.4-1.8z"/><path fill="#0082FB" d="M21 5.7Q19.2 4.1 17.1 4q-2 .1-3.7 2l1.4 1.2Q15.9 6 17 6t2.2 1z"/><path fill="url(#devicon-meta-icon-20-h)" d="M24 14.1a13 13 0 0 0-3-8.4l-1.7 1.4q2.2 2.3 2.4 7z"/><path fill="url(#devicon-meta-icon-21-i)" d="M24 14.2h-2.3v.4q0 1.2-.4 2l1.7 1.7q1-1.5 1-3.9z"/><path fill="url(#devicon-meta-icon-22-j)" d="M21.3 16.5q-.3.6-.9.8l.8 2.5.4-.2a4 4 0 0 0 1.4-1.2v-.1z"/><path fill="url(#devicon-meta-icon-23-k)" d="m20 17.4-.8-.1-.8 2.5a5 5 0 0 0 2.8 0l-.8-2.5z"/><path fill="url(#devicon-meta-icon-24-l)" d="m18.3 16.5-1.8 2q.9.9 2 1.3l.7-2.5z"/><path fill="url(#devicon-meta-icon-25-m)" d="M18.3 16.5 16 13.1l-1.4-2.4-1.6 2.5 1 1.6q1.4 2.5 2.5 3.6z"/><defs><linearGradient id="devicon-meta-icon-13-a" x1="75.9%" x2="26.3%" y1="89.2%" y2="12.2%"><stop offset=".1%" stop-color="#0867DF"/><stop offset="45.4%" stop-color="#0668E1"/><stop offset="85.9%" stop-color="#0064E0"/></linearGradient><linearGradient id="devicon-meta-icon-14-b" x1="21.7%" x2="97.1%" y1="75.9%" y2="24%"><stop offset="13.2%" stop-color="#0064DF"/><stop offset="99.9%" stop-color="#0064E0"/></linearGradient><linearGradient id="devicon-meta-icon-15-c" x1="38.3%" x2="60.9%" y1="89.1%" y2="16.1%"><stop offset="1.5%" stop-color="#0072EC"/><stop offset="68.8%" stop-color="#0064DF"/></linearGradient><linearGradient id="devicon-meta-icon-16-d" x1="47%" x2="52.1%" y1="90.2%" y2="15.7%"><stop offset="7.3%" stop-color="#007CF6"/><stop offset="99.4%" stop-color="#0072EC"/></linearGradient><linearGradient id="devicon-meta-icon-17-e" x1="52.2%" x2="47.6%" y1="58.3%" y2="37%"><stop offset="7.3%" stop-color="#007FF9"/><stop offset="100%" stop-color="#007CF6"/></linearGradient><linearGradient id="devicon-meta-icon-18-f" x1="37.7%" x2="62%" y1="12.5%" y2="63.6%"><stop offset="7.3%" stop-color="#007FF9"/><stop offset="100%" stop-color="#0082FB"/></linearGradient><linearGradient id="devicon-meta-icon-19-g" x1="34.8%" x2="62.3%" y1="68.9%" y2="23.2%"><stop offset="28%" stop-color="#007FF8"/><stop offset="91.4%" stop-color="#0082FB"/></linearGradient><linearGradient id="devicon-meta-icon-20-h" x1="43.8%" x2="57.6%" y1="6.2%" y2="98.5%"><stop offset="0%" stop-color="#0082FB"/><stop offset="100%" stop-color="#0081FA"/></linearGradient><linearGradient id="devicon-meta-icon-21-i" x1="60.1%" x2="39.9%" y1="4.7%" y2="69.1%"><stop offset="6.2%" stop-color="#0081FA"/><stop offset="100%" stop-color="#0080F9"/></linearGradient><linearGradient id="devicon-meta-icon-22-j" x1="30.3%" x2="61.1%" y1="59.3%" y2="33.2%"><stop offset="0%" stop-color="#027AF3"/><stop offset="100%" stop-color="#0080F9"/></linearGradient><linearGradient id="devicon-meta-icon-23-k" x1="20.4%" x2="82.1%" y1="50%" y2="50%"><stop offset="0%" stop-color="#0377EF"/><stop offset="99.9%" stop-color="#0279F1"/></linearGradient><linearGradient id="devicon-meta-icon-24-l" x1="40.3%" x2="72.4%" y1="35.3%" y2="57.8%"><stop offset=".2%" stop-color="#0471E9"/><stop offset="100%" stop-color="#0377EF"/></linearGradient><linearGradient id="devicon-meta-icon-25-m" x1="32.3%" x2="68%" y1="19.7%" y2="84.9%"><stop offset="27.6%" stop-color="#0867DF"/><stop offset="100%" stop-color="#0471E9"/></linearGradient></defs></g></svg>