<svg xmlns="http://www.w3.org/2000/svg" viewBox="0 0 100 100" fill="none">
  <defs>
    <linearGradient id="iconGrad" x1="0%" y1="0%" x2="100%" y2="100%">
      <stop offset="0%" stop-color="#306cc4" />
      <stop offset="50%" stop-color="#807ae8" />
      <stop offset="100%" stop-color="#5eead4" />
    </linearGradient>
  </defs>
  
  <!-- Database Disks -->
  <ellipse cx="35" cy="40" rx="20" ry="8" stroke="url(#iconGrad)" stroke-width="5" />
  <path d="M 15 40 L 15 60 A 20 8 0 0 0 55 60 L 55 40" stroke="url(#iconGrad)" stroke-width="5" />
  <path d="M 15 60 L 15 80 A 20 8 0 0 0 55 80 L 55 60" stroke="url(#iconGrad)" stroke-width="5" />
  
  <!-- Document being retrieved -->
  <rect x="50" y="20" width="35" height="45" rx="4" fill="none" stroke="url(#iconGrad)" stroke-width="5" />
  <line x1="58" y1="32" x2="77" y2="32" stroke="url(#iconGrad)" stroke-width="4" stroke-linecap="round"/>
  <line x1="58" y1="44" x2="70" y2="44" stroke="url(#iconGrad)" stroke-width="4" stroke-linecap="round"/>
  
  <!-- AI Spark over the document -->
  <path d="M 85 55 Q 85 65 95 65 Q 85 65 85 75 Q 85 65 75 65 Q 85 65 85 55 Z" fill="url(#iconGrad)" />
  <path d="M 70 70 Q 70 75 75 75 Q 70 75 70 80 Q 70 75 65 75 Q 70 75 70 70 Z" fill="url(#iconGrad)" />
</svg>
